<svg width="55" height="50" viewBox="0 0 55 50" fill="none" xmlns="http://www.w3.org/2000/svg">
<path d="M1.47266 1.14551H17.2302C20.0163 1.14551 22.6883 2.25229 24.6584 4.22237C26.6285 6.19244 27.7353 8.86445 27.7353 11.6506V48.4182C27.7353 46.3287 26.9052 44.3246 25.4276 42.8471C23.9501 41.3695 21.9461 40.5394 19.8565 40.5394H1.47266V1.14551Z" stroke="#CDF0FF" stroke-width="2" stroke-linecap="round" stroke-linejoin="round"/>
<path d="M53.998 1.14551H38.2404C35.4543 1.14551 32.7823 2.25229 30.8122 4.22237C28.8421 6.19244 27.7354 8.86445 27.7354 11.6506V48.4182C27.7354 46.3287 28.5654 44.3246 30.043 42.8471C31.5206 41.3695 33.5246 40.5394 35.6141 40.5394H53.998V1.14551Z" stroke="#CDF0FF" stroke-width="2" stroke-linecap="round" stroke-linejoin="round"/>
</svg>
