<?xml version="1.0" encoding="utf-8"?>
<!-- Uploaded to: SVG Repo, www.svgrepo.com, Generator: SVG Repo Mixer Tools -->
<svg fill="#000000" height="800px" width="800px" version="1.1" id="Layer_1" xmlns="http://www.w3.org/2000/svg" xmlns:xlink="http://www.w3.org/1999/xlink" 
	 viewBox="0 0 64 64" enable-background="new 0 0 64 64" xml:space="preserve">
<g id="Photo-camera">
	<path d="M57.3563995,16.2040997H41v-4.7645998C41,9.4053001,39.3446999,7.75,37.3105011,7.75H26.6854992
		C24.6532993,7.75,23,9.4034004,23,11.4356003v4.7684994H10.4541006v-3.2264996c0-0.5528002-0.4473-1-1-1
		c-0.5528002,0-1,0.4471998-1,1v3.2264996H6.6435008c-3.6631,0-6.6434999,2.9805012-6.6434999,6.6436005v26.7587986
		c0,3.6631012,2.9804001,6.6435013,6.6434999,6.6435013h50.7128983C61.0195007,56.25,64,53.2695999,64,49.6064987V22.8477001
		C64,19.1846008,61.0195007,16.2040997,57.3563995,16.2040997z M25,11.4356003C25,10.5059004,25.7558002,9.75,26.6854992,9.75
		h10.6250019C38.2422066,9.75,39,10.5078001,39,11.4394999V15.75H25V11.4356003z M62,49.6064987
		C62,52.1669998,59.9169998,54.25,57.3563995,54.25H6.6435008c-2.5605001,0-4.6435003-2.0830002-4.6435003-4.6435013V22.8477001
		c0-2.5606003,2.0829999-4.6436005,4.6435003-4.6436005h50.7128983C59.9169998,18.2040997,62,20.2870998,62,22.8477001V49.6064987z"
		/>
	<path d="M32,21.75c-8.2714996,0-15,6.7285004-15,15s6.7285004,15,15,15s15-6.7285004,15-15S40.2714996,21.75,32,21.75z M32,49.75
		c-7.1679993,0-13-5.8320007-13-13c0-7.1679001,5.8320007-13,13-13c7.1679001,0,13,5.8320999,13,13
		C45,43.9179993,39.1679001,49.75,32,49.75z"/>
	<path d="M32,27.75c-4.9629002,0-9,4.0370998-9,9s4.0370998,9,9,9s9-4.0371017,9-9S36.9628983,27.75,32,27.75z M32,43.75
		c-3.8593998,0-7-3.1405983-7-7c0-3.8592987,3.1406002-7,7-7c3.8592987,0,7,3.1407013,7,7C39,40.6094017,35.8592987,43.75,32,43.75z
		"/>
	<path d="M56,21.75h-8c-0.5527954,0-1,0.4473-1,1c0,0.5527992,0.4472046,1,1,1h8c0.5527,0,1-0.4472008,1-1
		C57,22.1973,56.5527,21.75,56,21.75z"/>
</g>
</svg>